<?xml version="1.0" encoding="UTF-8" standalone="no" ?>
<!DOCTYPE svg PUBLIC "-//W3C//DTD SVG 1.1//EN" "http://www.w3.org/Graphics/SVG/1.1/DTD/svg11.dtd">
<svg xmlns="http://www.w3.org/2000/svg" xmlns:xlink="http://www.w3.org/1999/xlink" version="1.1" width="1080" height="1080" viewBox="0 0 1080 1080" xml:space="preserve">
<desc>Created with Fabric.js 5.2.4</desc>
<defs>
</defs>
<g transform="matrix(1 0 0 1 540 540)" id="53d787a6-31e8-4b4f-8b0b-99b778451043"  >
<rect style="stroke: none; stroke-width: 1; stroke-dasharray: none; stroke-linecap: butt; stroke-dashoffset: 0; stroke-linejoin: miter; stroke-miterlimit: 4; fill: rgb(255,255,255); fill-rule: nonzero; opacity: 1; visibility: hidden;" vector-effect="non-scaling-stroke"  x="-540" y="-540" rx="0" ry="0" width="1080" height="1080" />
</g>
<g transform="matrix(1 0 0 1 540 540)" id="ec785578-4f07-4a89-b568-e2ef6213a42f"  >
</g>
<g transform="matrix(13.26 0 0 13.26 540 540)" id="path7564"  >
<path style="stroke: rgb(0,0,0); stroke-width: 0; stroke-dasharray: none; stroke-linecap: butt; stroke-dashoffset: 0; stroke-linejoin: miter; stroke-miterlimit: 4; fill: rgb(111,156,235); fill-rule: nonzero; opacity: 1;" vector-effect="non-scaling-stroke"  transform=" translate(-96.95, -143.07)" d="M 96.49649 103.5349 C 94.317464 107.44894 91.53465299999999 111.0252 89.873611 115.21530999999999 C 83.058902 132.40616999999997 107.41146 134.95591 105.2919 119.70778999999999 C 104.94348 117.20169999999999 103.9493 114.75995999999999 102.80172999999999 112.51981999999998 C 101.13350999999999 109.26313999999998 99.01830999999999 106.16811999999999 96.49649 103.53489999999998 z M 80.323623 125.99722 C 81.86939699999999 132.11212 85.242888 135.49681 91.105535 137.67763 C 89.578384 131.63986 86.088058 128.21289 80.323623 125.99722 z M 113.56787 126.89572 C 107.94275 127.98485 104.51737 131.37192 102.78594 136.77917 C 108.41099 135.6901 111.83646 132.3029 113.56787 126.89572 z M 75.641606 134.22405 C 69.29319699999999 134.19395 63.048271 139.29384000000002 57.86127499999999 142.17011 L 57.86127499999999 143.96713 C 63.76212099999999 147.23922 72.10509099999999 154.23748 79.339125 151.24981 C 86.731915 148.19654 85.448319 135.84450999999999 77.61409499999999 134.4048 C 76.95621799999999 134.28381 76.29835399999999 134.227 75.641606 134.22399 z M 118.2481 134.22405 C 117.59137999999999 134.22705 116.93348999999999 134.28385 116.27564 134.40487000000002 C 108.44140999999999 135.84458 107.15778 148.19661000000002 114.55060999999999 151.24988000000002 C 121.78464 154.23755000000003 130.12932999999998 147.23929 136.03019 143.96720000000002 L 136.03019 142.17017 C 130.84318000000002 139.2939 124.59656000000001 134.19508000000002 118.24810000000001 134.22412000000003 z M 96.98962 138.47963000000001 C 96.84089 138.47893000000002 96.68871 138.48663000000002 96.53158 138.49973000000003 C 91.580782 138.96534000000003 92.501964 146.77359000000004 97.35814 146.24220000000003 C 102.02469 145.73147000000003 101.59626 138.49986 96.98962 138.47870000000003 z M 102.78594 148.45958000000002 C 104.33171999999999 154.57441000000003 107.70521 157.95917000000003 113.56787 160.13998 C 112.02022 154.02097 108.4701 150.91422 102.78594 148.45958000000002 z M 91.105535 149.35807000000003 C 85.480535 150.44711000000004 82.055002 153.83427000000003 80.323623 159.24149000000003 C 85.948626 158.15238000000002 89.374156 154.76529000000002 91.105535 149.35807000000003 z M 97.59152 156.34593000000004 C 91.963654 156.27303000000003 85.976059 161.43079000000003 89.738491 170.92193000000003 C 91.39711299999999 175.10612000000003 94.318484 178.69027000000003 96.49649 182.60234000000003 C 99.02655999999999 179.96076000000002 101.13319999999999 176.84656000000004 102.87369 173.61738000000003 C 104.08700999999999 171.36601000000002 105.00744999999999 168.98146000000003 105.31295 166.42945000000003 C 106.12769 159.62327000000002 101.96875 156.40255000000002 97.59152 156.34593000000004 z" stroke-linecap="round" />
</g>
</svg>